<svg version="1.1" id="Layer_1" xmlns="http://www.w3.org/2000/svg" xmlns:xlink="http://www.w3.org/1999/xlink" x="0px" y="0px"
	 width="100%" viewBox="0 0 600 683" enable-background="new 0 0 600 683" xml:space="preserve">
<path fill="#95BF47" opacity="1.000000" stroke="none" 
	d="
M0.999999,612.000000 
	C1.000000,606.645081 1.000000,601.290100 1.393411,595.673828 
	C2.119265,595.057251 2.697715,594.733948 2.748362,594.342346 
	C4.197890,583.133789 5.608825,571.920166 6.995035,560.703552 
	C8.120525,551.596497 9.155722,542.477966 10.323382,533.376465 
	C11.489121,524.289795 12.807827,515.222778 13.989257,506.138062 
	C15.151113,497.203918 16.181881,488.252655 17.349220,479.319275 
	C18.514961,470.398132 19.847300,461.498474 20.980204,452.573395 
	C22.115576,443.628845 22.999931,434.652100 24.165968,425.711853 
	C25.688833,414.035767 27.460314,402.392059 28.973642,390.714813 
	C30.132698,381.771301 30.926283,372.779938 32.116646,363.841034 
	C33.972900,349.901703 36.140297,336.003510 37.963528,322.060120 
	C39.493816,310.357117 40.579090,298.595795 42.119095,286.894226 
	C43.932396,273.116058 46.135807,259.389282 47.962479,245.612732 
	C49.792706,231.809357 51.089596,217.929733 53.187294,204.169983 
	C54.051422,198.501801 55.451504,192.491730 62.268921,190.301010 
	C73.100945,186.820221 83.879311,183.172562 94.709328,179.685379 
	C106.944633,175.745728 119.155052,171.709900 131.494095,168.120895 
	C136.246323,166.738632 139.419922,165.908569 140.535797,159.555054 
	C143.806046,140.935226 149.816940,123.035278 157.589661,105.694504 
	C170.856995,76.095306 187.195175,48.759438 212.144455,27.335781 
	C222.009354,18.864920 232.607254,11.613392 245.046112,7.488846 
	C270.184265,-0.846617 293.513275,0.433418 313.204651,20.635984 
	C313.999451,21.451429 315.488556,21.790869 316.707458,21.953915 
	C320.121277,22.410555 323.561401,22.676666 326.994049,22.985428 
	C345.863647,24.682722 359.793976,34.557877 371.079224,49.155354 
	C380.103241,60.827915 385.800476,74.090103 390.320221,87.138466 
	C399.985107,85.101959 409.494965,83.098122 419.054504,81.554680 
	C419.125580,84.845825 419.165741,87.676567 419.165771,90.507309 
	C419.168701,283.518616 419.169708,476.529907 419.161407,669.541199 
	C419.161224,674.360779 419.056152,679.180420 419.000000,684.000000 
	C417.285645,684.000000 415.571289,684.000000 413.659546,683.624023 
	C413.107635,682.909180 412.793030,682.333557 412.392822,682.266174 
	C401.767944,680.477783 391.126282,678.788818 380.504120,676.984802 
	C367.957947,674.853943 355.427856,672.628479 342.889893,670.449341 
	C328.584778,667.963074 314.279785,665.476501 299.972748,663.001526 
	C287.271545,660.804382 274.566742,658.627991 261.865143,656.433044 
	C247.557281,653.960693 233.251663,651.475159 218.944199,649.000366 
	C206.243378,646.803467 193.541107,644.614868 180.839890,642.420166 
	C168.461166,640.281128 156.084183,638.131958 143.704208,636.000305 
	C131.160156,633.840332 118.609337,631.719482 106.068939,629.538696 
	C93.695778,627.386902 81.335251,625.162598 68.963120,623.004822 
	C56.265759,620.790344 43.575569,618.528931 30.854914,616.455750 
	C20.924969,614.837402 10.953190,613.475708 0.999999,612.000000 
M302.955841,489.449585 
	C303.652527,484.422852 304.350861,479.396332 305.045685,474.369354 
	C307.882507,453.844940 305.194946,434.137451 296.053192,415.468292 
	C288.279816,399.593567 276.211090,387.338562 262.111511,377.135223 
	C246.881943,366.114166 231.039612,355.937958 215.850601,344.863739 
	C209.186584,340.005035 204.616470,332.619476 205.291763,324.288971 
	C206.391678,310.720093 210.810837,301.776886 226.831177,295.905853 
	C240.269348,290.981079 254.066360,291.230072 267.808899,293.064301 
	C276.433228,294.215363 284.954742,296.634399 293.290710,299.228912 
	C297.185364,300.441071 298.141571,299.510315 299.047119,296.045807 
	C303.408081,279.361328 307.993896,262.735809 312.444824,246.074646 
	C314.600250,238.006210 316.634705,229.905472 318.758392,221.685959 
	C305.624329,217.256348 292.810181,214.714569 279.603149,215.078033 
	C269.894897,215.345215 260.177917,216.056671 250.515717,217.059937 
	C234.980820,218.672958 220.115265,223.060913 205.984726,229.618378 
	C183.714615,239.953156 165.738754,255.282654 153.006119,276.489075 
	C143.420074,292.454803 137.540588,309.755951 136.206238,328.235718 
	C135.435242,338.913452 135.965942,349.827209 137.238358,360.476135 
	C139.007843,375.285126 145.223236,388.482391 155.246841,399.682190 
	C165.588852,411.237762 178.263855,419.985474 190.783234,428.915039 
	C199.310181,434.996857 207.586563,441.320892 213.105164,450.557983 
	C219.149673,460.675415 221.653061,471.231567 215.893066,482.118408 
	C210.307236,492.676025 200.631058,496.256866 189.093933,496.114136 
	C178.538498,495.983551 168.693558,492.836914 159.367722,488.556641 
	C148.425385,483.534454 138.006332,477.372192 127.017632,471.521973 
	C126.825645,471.980774 126.267944,472.928986 126.024796,473.951965 
	C121.995384,490.904175 118.319679,507.949799 113.818703,524.774963 
	C112.436440,529.941956 114.296585,532.896179 117.796425,535.129578 
	C127.873024,541.559937 137.734924,548.624207 148.543213,553.546570 
	C169.006134,562.865967 190.596359,567.369141 213.389297,565.124329 
	C225.649597,563.916870 237.558456,562.296631 248.981598,557.136841 
	C263.989624,550.357849 276.420593,540.724548 286.161835,527.479492 
	C294.409027,516.265991 299.670410,503.746521 302.955841,489.449585 
M258.517944,55.958687 
	C266.429352,45.401356 276.534210,37.296444 288.227997,30.142765 
	C286.252716,29.228287 284.981018,28.515568 283.627411,28.032082 
	C270.325897,23.280973 257.576294,26.175398 245.746643,32.260757 
	C230.042221,40.339363 217.759720,52.747757 207.100067,66.677055 
	C193.636597,84.270210 182.912964,103.468727 175.042831,124.166115 
	C170.885330,135.099731 167.466629,146.314255 163.448914,158.186356 
	C182.199921,152.472382 199.457581,147.271286 216.655273,141.878983 
	C218.285980,141.367676 220.572739,139.838531 220.811615,138.476273 
	C223.386749,123.790298 228.156265,109.785561 234.121536,96.234802 
	C240.381821,82.013931 247.761917,68.352814 258.517944,55.958687 
M268.070862,81.657852 
	C258.177460,97.449486 250.850006,114.340096 245.837006,132.786911 
	C268.905121,125.625320 291.426849,118.633377 313.989838,111.628616 
	C314.309082,89.813957 312.300232,68.857124 303.440369,48.461540 
	C299.303558,50.990322 295.537384,52.957962 292.140656,55.432690 
	C282.583832,62.395493 275.226593,71.452751 268.070862,81.657852 
M336.895203,49.418964 
	C334.074707,48.364025 331.254181,47.309086 327.512085,45.909451 
	C334.330383,65.140266 336.803894,84.305649 337.201477,104.468933 
	C347.811493,101.173370 357.962891,98.020256 368.457062,94.760681 
	C361.999451,76.481560 354.154541,60.158089 336.895203,49.418964 
z"/>
<path fill="#000000" opacity="1.000000" stroke="none" 
	d="
M419.004822,81.094284 
	C409.494965,83.098122 399.985107,85.101959 390.320221,87.138466 
	C385.800476,74.090103 380.103241,60.827915 371.079224,49.155354 
	C359.793976,34.557877 345.863647,24.682722 326.994049,22.985428 
	C323.561401,22.676666 320.121277,22.410555 316.707458,21.953915 
	C315.488556,21.790869 313.999451,21.451429 313.204651,20.635984 
	C293.513275,0.433418 270.184265,-0.846617 245.046112,7.488846 
	C232.607254,11.613392 222.009354,18.864920 212.144455,27.335781 
	C187.195175,48.759438 170.856995,76.095306 157.589661,105.694504 
	C149.816940,123.035278 143.806046,140.935226 140.535797,159.555054 
	C139.419922,165.908569 136.246323,166.738632 131.494095,168.120895 
	C119.155052,171.709900 106.944633,175.745728 94.709328,179.685379 
	C83.879311,183.172562 73.100945,186.820221 62.268921,190.301010 
	C55.451504,192.491730 54.051422,198.501801 53.187294,204.169983 
	C51.089596,217.929733 49.792706,231.809357 47.962479,245.612732 
	C46.135807,259.389282 43.932396,273.116058 42.119095,286.894226 
	C40.579090,298.595795 39.493816,310.357117 37.963528,322.060120 
	C36.140297,336.003510 33.972900,349.901703 32.116646,363.841034 
	C30.926283,372.779938 30.132698,381.771301 28.973642,390.714813 
	C27.460314,402.392059 25.688833,414.035767 24.165968,425.711853 
	C22.999931,434.652100 22.115576,443.628845 20.980204,452.573395 
	C19.847300,461.498474 18.514961,470.398132 17.349220,479.319275 
	C16.181881,488.252655 15.151113,497.203918 13.989257,506.138062 
	C12.807827,515.222778 11.489121,524.289795 10.323382,533.376465 
	C9.155722,542.477966 8.120525,551.596497 6.995035,560.703552 
	C5.608825,571.920166 4.197890,583.133789 2.748362,594.342346 
	C2.697715,594.733948 2.119265,595.057251 1.393411,595.206177 
	C1.000000,397.047668 1.000000,199.095337 1.000000,1.071501 
	C200.904160,1.071501 400.808350,1.071501 601.000000,1.071501 
	C601.000000,208.354141 601.000000,415.708405 600.586121,623.588745 
	C599.773621,622.107910 599.303955,620.112061 598.987793,618.092285 
	C596.658508,603.209167 594.277893,588.333252 592.074829,573.431274 
	C589.941040,558.997253 588.083923,544.522217 585.950500,530.088074 
	C583.747925,515.185791 581.277161,500.323120 579.074646,485.420837 
	C576.941528,470.988556 575.084229,456.515564 572.951599,442.083221 
	C570.749023,427.177643 568.280029,412.311462 566.076782,397.405975 
	C563.943481,382.974182 562.114868,368.496979 559.942932,354.071228 
	C557.432251,337.395172 554.559753,320.773224 552.091858,304.091156 
	C549.884216,289.167877 548.160767,274.173004 545.956177,259.249237 
	C543.132568,240.134903 539.935974,221.075806 537.093323,201.964172 
	C533.958923,180.891403 531.053284,159.784668 528.028442,138.695557 
	C526.593689,128.692627 525.677124,127.942924 515.391052,127.961403 
	C503.392792,127.982956 491.364227,127.482910 479.408142,128.199112 
	C472.704132,128.600693 468.336975,125.859428 464.090576,121.563721 
	C454.249908,111.608765 444.653656,101.373726 434.284485,91.997429 
	C429.725830,87.875275 426.150574,81.795311 419.004822,81.094284 
z"/>
<path fill="#5E8E3E" opacity="1.000000" stroke="none" 
	d="
M419.054504,81.554688 
	C426.150574,81.795311 429.725830,87.875275 434.284485,91.997429 
	C444.653656,101.373726 454.249908,111.608765 464.090576,121.563721 
	C468.336975,125.859428 472.704132,128.600693 479.408142,128.199112 
	C491.364227,127.482910 503.392792,127.982956 515.391052,127.961403 
	C525.677124,127.942924 526.593689,128.692627 528.028442,138.695557 
	C531.053284,159.784668 533.958923,180.891403 537.093323,201.964172 
	C539.935974,221.075806 543.132568,240.134903 545.956177,259.249237 
	C548.160767,274.173004 549.884216,289.167877 552.091858,304.091156 
	C554.559753,320.773224 557.432251,337.395172 559.942932,354.071228 
	C562.114868,368.496979 563.943481,382.974182 566.076782,397.405975 
	C568.280029,412.311462 570.749023,427.177643 572.951599,442.083221 
	C575.084229,456.515564 576.941528,470.988556 579.074646,485.420837 
	C581.277161,500.323120 583.747925,515.185791 585.950500,530.088074 
	C588.083923,544.522217 589.941040,558.997253 592.074829,573.431274 
	C594.277893,588.333252 596.658508,603.209167 598.987793,618.092285 
	C599.303955,620.112061 599.773621,622.107910 600.586121,624.057373 
	C601.000000,628.689270 601.000000,633.378479 600.596619,638.559937 
	C593.039612,640.721863 585.862000,642.295654 578.736206,644.076782 
	C528.169434,656.716003 477.611847,669.391602 427.067902,682.121460 
	C426.271393,682.321960 425.684631,683.355286 425.000000,684.000000 
	C423.285645,684.000000 421.571289,684.000000 419.428467,684.000000 
	C419.056152,679.180420 419.161224,674.360779 419.161407,669.541199 
	C419.169708,476.529907 419.168701,283.518616 419.165771,90.507309 
	C419.165741,87.676567 419.125580,84.845825 419.054504,81.554688 
z"/>
<path fill="#000000" opacity="1.000000" stroke="none" 
	d="
M0.999999,612.468628 
	C10.953190,613.475708 20.924969,614.837402 30.854914,616.455750 
	C43.575569,618.528931 56.265759,620.790344 68.963120,623.004822 
	C81.335251,625.162598 93.695778,627.386902 106.068939,629.538696 
	C118.609337,631.719482 131.160156,633.840332 143.704208,636.000305 
	C156.084183,638.131958 168.461166,640.281128 180.839890,642.420166 
	C193.541107,644.614868 206.243378,646.803467 218.944199,649.000366 
	C233.251663,651.475159 247.557281,653.960693 261.865143,656.433044 
	C274.566742,658.627991 287.271545,660.804382 299.972748,663.001526 
	C314.279785,665.476501 328.584778,667.963074 342.889893,670.449341 
	C355.427856,672.628479 367.957947,674.853943 380.504120,676.984802 
	C391.126282,678.788818 401.767944,680.477783 412.392822,682.266174 
	C412.793030,682.333557 413.107635,682.909180 413.231079,683.624023 
	C275.790863,684.000000 138.581741,684.000000 1.000000,684.000000 
	C1.000000,660.313721 1.000000,636.625549 0.999999,612.468628 
z"/>
<path fill="#000000" opacity="1.000000" stroke="none" 
	d="
M425.468658,684.000000 
	C425.684631,683.355286 426.271393,682.321960 427.067902,682.121460 
	C477.611847,669.391602 528.169434,656.716003 578.736206,644.076782 
	C585.862000,642.295654 593.039612,640.721863 600.596619,639.026001 
	C601.000000,653.970276 601.000000,668.940491 601.000000,684.000000 
	C542.645813,684.000000 484.291565,684.000000 425.468658,684.000000 
z"/>
<path fill="#000000" opacity="1.000000" stroke="none" 
	d="
M302.948242,489.878632 
	C299.670410,503.746521 294.409027,516.265991 286.161835,527.479492 
	C276.420593,540.724548 263.989624,550.357849 248.981598,557.136841 
	C237.558456,562.296631 225.649597,563.916870 213.389297,565.124329 
	C190.596359,567.369141 169.006134,562.865967 148.543213,553.546570 
	C137.734924,548.624207 127.873024,541.559937 117.796425,535.129578 
	C114.296585,532.896179 112.436440,529.941956 113.818703,524.774963 
	C118.319679,507.949799 121.995384,490.904175 126.024796,473.951965 
	C126.267944,472.928986 126.825645,471.980774 127.017632,471.521973 
	C138.006332,477.372192 148.425385,483.534454 159.367722,488.556641 
	C168.693558,492.836914 178.538498,495.983551 189.093933,496.114136 
	C200.631058,496.256866 210.307236,492.676025 215.893066,482.118408 
	C221.653061,471.231567 219.149673,460.675415 213.105164,450.557983 
	C207.586563,441.320892 199.310181,434.996857 190.783234,428.915039 
	C178.263855,419.985474 165.588852,411.237762 155.246841,399.682190 
	C145.223236,388.482391 139.007843,375.285126 137.238358,360.476135 
	C135.965942,349.827209 135.435242,338.913452 136.206238,328.235718 
	C137.540588,309.755951 143.420074,292.454803 153.006119,276.489075 
	C165.738754,255.282654 183.714615,239.953156 205.984726,229.618378 
	C220.115265,223.060913 234.980820,218.672958 250.515717,217.059937 
	C260.177917,216.056671 269.894897,215.345215 279.603149,215.078033 
	C292.810181,214.714569 305.624329,217.256348 318.758392,221.685959 
	C316.634705,229.905472 314.600250,238.006210 312.444824,246.074646 
	C307.993896,262.735809 303.408081,279.361328 299.047119,296.045807 
	C298.141571,299.510315 297.185364,300.441071 293.290710,299.228912 
	C284.954742,296.634399 276.433228,294.215363 267.808899,293.064301 
	C254.066360,291.230072 240.269348,290.981079 226.831177,295.905853 
	C210.810837,301.776886 206.391678,310.720093 205.291763,324.288971 
	C204.616470,332.619476 209.186584,340.005035 215.850601,344.863739 
	C231.039612,355.937958 246.881943,366.114166 262.111511,377.135223 
	C276.211090,387.338562 288.279816,399.593567 296.053192,415.468292 
	C305.194946,434.137451 307.882507,453.844940 305.045685,474.369354 
	C304.350861,479.396332 303.652527,484.422852 302.948242,489.878632 
z"/>
<path fill="#000000" opacity="1.000000" stroke="none" 
	d="
M258.265350,56.217216 
	C247.761917,68.352814 240.381821,82.013931 234.121536,96.234802 
	C228.156265,109.785561 223.386749,123.790298 220.811615,138.476273 
	C220.572739,139.838531 218.285980,141.367676 216.655273,141.878983 
	C199.457581,147.271286 182.199921,152.472382 163.448914,158.186356 
	C167.466629,146.314255 170.885330,135.099731 175.042831,124.166115 
	C182.912964,103.468727 193.636597,84.270210 207.100067,66.677055 
	C217.759720,52.747757 230.042221,40.339363 245.746643,32.260757 
	C257.576294,26.175398 270.325897,23.280973 283.627411,28.032082 
	C284.981018,28.515568 286.252716,29.228287 288.227997,30.142765 
	C276.534210,37.296444 266.429352,45.401356 258.265350,56.217216 
z"/>
<path fill="#000000" opacity="1.000000" stroke="none" 
	d="
M268.275146,81.351318 
	C275.226593,71.452751 282.583832,62.395493 292.140656,55.432690 
	C295.537384,52.957962 299.303558,50.990322 303.440369,48.461540 
	C312.300232,68.857124 314.309082,89.813957 313.989838,111.628616 
	C291.426849,118.633377 268.905121,125.625320 245.837006,132.786911 
	C250.850006,114.340096 258.177460,97.449486 268.275146,81.351318 
z"/>
<path fill="#000000" opacity="1.000000" stroke="none" 
	d="
M337.163544,49.685596 
	C354.154541,60.158089 361.999451,76.481560 368.457062,94.760681 
	C357.962891,98.020256 347.811493,101.173370 337.201477,104.468933 
	C336.803894,84.305649 334.330383,65.140266 327.512085,45.909451 
	C331.254181,47.309086 334.074707,48.364025 337.163544,49.685596 
z"/>
</svg>
